<svg width="488" height="437" viewBox="0 0 488 437" fill="none" xmlns="http://www.w3.org/2000/svg">
<g opacity="0.9">
<path fill-rule="evenodd" clip-rule="evenodd" d="M482 40C485.314 40 488 37.3137 488 34C488 30.6863 485.314 28 482 28C478.686 28 476 30.6863 476 34C476 37.3137 478.686 40 482 40Z" fill="black" fill-opacity="0.28"/>
<path fill-rule="evenodd" clip-rule="evenodd" d="M426 40C429.314 40 432 37.3137 432 34C432 30.6863 429.314 28 426 28C422.686 28 420 30.6863 420 34C420 37.3137 422.686 40 426 40Z" fill="black" fill-opacity="0.28"/>
<path fill-rule="evenodd" clip-rule="evenodd" d="M370 40C373.314 40 376 37.3137 376 34C376 30.6863 373.314 28 370 28C366.686 28 364 30.6863 364 34C364 37.3137 366.686 40 370 40Z" fill="black" fill-opacity="0.28"/>
<path fill-rule="evenodd" clip-rule="evenodd" d="M314 40C317.314 40 320 37.3137 320 34C320 30.6863 317.314 28 314 28C310.686 28 308 30.6863 308 34C308 37.3137 310.686 40 314 40Z" fill="black" fill-opacity="0.28"/>
<path fill-rule="evenodd" clip-rule="evenodd" d="M258 40C261.314 40 264 37.3137 264 34C264 30.6863 261.314 28 258 28C254.686 28 252 30.6863 252 34C252 37.3137 254.686 40 258 40Z" fill="black" fill-opacity="0.28"/>
<path fill-rule="evenodd" clip-rule="evenodd" d="M202 40C205.314 40 208 37.3137 208 34C208 30.6863 205.314 28 202 28C198.686 28 196 30.6863 196 34C196 37.3137 198.686 40 202 40Z" fill="black" fill-opacity="0.28"/>
<path fill-rule="evenodd" clip-rule="evenodd" d="M146 40C149.314 40 152 37.3137 152 34C152 30.6863 149.314 28 146 28C142.686 28 140 30.6863 140 34C140 37.3137 142.686 40 146 40Z" fill="black" fill-opacity="0.28"/>
<path fill-rule="evenodd" clip-rule="evenodd" d="M90 40C93.3137 40 96 37.3137 96 34C96 30.6863 93.3137 28 90 28C86.6863 28 84 30.6863 84 34C84 37.3137 86.6863 40 90 40Z" fill="black" fill-opacity="0.28"/>
<path fill-rule="evenodd" clip-rule="evenodd" d="M34 40C37.3137 40 40 37.3137 40 34C40 30.6863 37.3137 28 34 28C30.6863 28 28 30.6863 28 34C28 37.3137 30.6863 40 34 40Z" fill="black" fill-opacity="0.28"/>
<path fill-rule="evenodd" clip-rule="evenodd" d="M454 40C457.314 40 460 37.3137 460 34C460 30.6863 457.314 28 454 28C450.686 28 448 30.6863 448 34C448 37.3137 450.686 40 454 40Z" fill="black" fill-opacity="0.28"/>
<path fill-rule="evenodd" clip-rule="evenodd" d="M398 40C401.314 40 404 37.3137 404 34C404 30.6863 401.314 28 398 28C394.686 28 392 30.6863 392 34C392 37.3137 394.686 40 398 40Z" fill="black" fill-opacity="0.28"/>
<path fill-rule="evenodd" clip-rule="evenodd" d="M342 40C345.314 40 348 37.3137 348 34C348 30.6863 345.314 28 342 28C338.686 28 336 30.6863 336 34C336 37.3137 338.686 40 342 40Z" fill="black" fill-opacity="0.28"/>
<path fill-rule="evenodd" clip-rule="evenodd" d="M286 40C289.314 40 292 37.3137 292 34C292 30.6863 289.314 28 286 28C282.686 28 280 30.6863 280 34C280 37.3137 282.686 40 286 40Z" fill="black" fill-opacity="0.28"/>
<path fill-rule="evenodd" clip-rule="evenodd" d="M230 40C233.314 40 236 37.3137 236 34C236 30.6863 233.314 28 230 28C226.686 28 224 30.6863 224 34C224 37.3137 226.686 40 230 40Z" fill="black" fill-opacity="0.28"/>
<path fill-rule="evenodd" clip-rule="evenodd" d="M174 40C177.314 40 180 37.3137 180 34C180 30.6863 177.314 28 174 28C170.686 28 168 30.6863 168 34C168 37.3137 170.686 40 174 40Z" fill="black" fill-opacity="0.28"/>
<path fill-rule="evenodd" clip-rule="evenodd" d="M118 40C121.314 40 124 37.3137 124 34C124 30.6863 121.314 28 118 28C114.686 28 112 30.6863 112 34C112 37.3137 114.686 40 118 40Z" fill="black" fill-opacity="0.28"/>
<path fill-rule="evenodd" clip-rule="evenodd" d="M62 40C65.3137 40 68 37.3137 68 34C68 30.6863 65.3137 28 62 28C58.6863 28 56 30.6863 56 34C56 37.3137 58.6863 40 62 40Z" fill="black" fill-opacity="0.28"/>
<path fill-rule="evenodd" clip-rule="evenodd" d="M6 40C9.31371 40 12 37.3137 12 34C12 30.6863 9.31371 28 6 28C2.68629 28 0 30.6863 0 34C0 37.3137 2.68629 40 6 40Z" fill="black" fill-opacity="0.28"/>
<path fill-rule="evenodd" clip-rule="evenodd" d="M482 96C485.314 96 488 93.3137 488 90C488 86.6863 485.314 84 482 84C478.686 84 476 86.6863 476 90C476 93.3137 478.686 96 482 96Z" fill="black" fill-opacity="0.28"/>
<path fill-rule="evenodd" clip-rule="evenodd" d="M426 96C429.314 96 432 93.3137 432 90C432 86.6863 429.314 84 426 84C422.686 84 420 86.6863 420 90C420 93.3137 422.686 96 426 96Z" fill="black" fill-opacity="0.28"/>
<path fill-rule="evenodd" clip-rule="evenodd" d="M370 96C373.314 96 376 93.3137 376 90C376 86.6863 373.314 84 370 84C366.686 84 364 86.6863 364 90C364 93.3137 366.686 96 370 96Z" fill="black" fill-opacity="0.28"/>
<path fill-rule="evenodd" clip-rule="evenodd" d="M314 96C317.314 96 320 93.3137 320 90C320 86.6863 317.314 84 314 84C310.686 84 308 86.6863 308 90C308 93.3137 310.686 96 314 96Z" fill="black" fill-opacity="0.28"/>
<path fill-rule="evenodd" clip-rule="evenodd" d="M258 96C261.314 96 264 93.3137 264 90C264 86.6863 261.314 84 258 84C254.686 84 252 86.6863 252 90C252 93.3137 254.686 96 258 96Z" fill="black" fill-opacity="0.28"/>
<path fill-rule="evenodd" clip-rule="evenodd" d="M202 96C205.314 96 208 93.3137 208 90C208 86.6863 205.314 84 202 84C198.686 84 196 86.6863 196 90C196 93.3137 198.686 96 202 96Z" fill="black" fill-opacity="0.28"/>
<path fill-rule="evenodd" clip-rule="evenodd" d="M146 96C149.314 96 152 93.3137 152 90C152 86.6863 149.314 84 146 84C142.686 84 140 86.6863 140 90C140 93.3137 142.686 96 146 96Z" fill="black" fill-opacity="0.28"/>
<path fill-rule="evenodd" clip-rule="evenodd" d="M90 96C93.3137 96 96 93.3137 96 90C96 86.6863 93.3137 84 90 84C86.6863 84 84 86.6863 84 90C84 93.3137 86.6863 96 90 96Z" fill="black" fill-opacity="0.28"/>
<path fill-rule="evenodd" clip-rule="evenodd" d="M34 96C37.3137 96 40 93.3137 40 90C40 86.6863 37.3137 84 34 84C30.6863 84 28 86.6863 28 90C28 93.3137 30.6863 96 34 96Z" fill="black" fill-opacity="0.28"/>
<path fill-rule="evenodd" clip-rule="evenodd" d="M454 96C457.314 96 460 93.3137 460 90C460 86.6863 457.314 84 454 84C450.686 84 448 86.6863 448 90C448 93.3137 450.686 96 454 96Z" fill="black" fill-opacity="0.28"/>
<path fill-rule="evenodd" clip-rule="evenodd" d="M398 96C401.314 96 404 93.3137 404 90C404 86.6863 401.314 84 398 84C394.686 84 392 86.6863 392 90C392 93.3137 394.686 96 398 96Z" fill="black" fill-opacity="0.28"/>
<path fill-rule="evenodd" clip-rule="evenodd" d="M342 96C345.314 96 348 93.3137 348 90C348 86.6863 345.314 84 342 84C338.686 84 336 86.6863 336 90C336 93.3137 338.686 96 342 96Z" fill="black" fill-opacity="0.28"/>
<path fill-rule="evenodd" clip-rule="evenodd" d="M286 96C289.314 96 292 93.3137 292 90C292 86.6863 289.314 84 286 84C282.686 84 280 86.6863 280 90C280 93.3137 282.686 96 286 96Z" fill="black" fill-opacity="0.28"/>
<path fill-rule="evenodd" clip-rule="evenodd" d="M230 96C233.314 96 236 93.3137 236 90C236 86.6863 233.314 84 230 84C226.686 84 224 86.6863 224 90C224 93.3137 226.686 96 230 96Z" fill="black" fill-opacity="0.28"/>
<path fill-rule="evenodd" clip-rule="evenodd" d="M174 96C177.314 96 180 93.3137 180 90C180 86.6863 177.314 84 174 84C170.686 84 168 86.6863 168 90C168 93.3137 170.686 96 174 96Z" fill="black" fill-opacity="0.28"/>
<path fill-rule="evenodd" clip-rule="evenodd" d="M118 96C121.314 96 124 93.3137 124 90C124 86.6863 121.314 84 118 84C114.686 84 112 86.6863 112 90C112 93.3137 114.686 96 118 96Z" fill="black" fill-opacity="0.28"/>
<path fill-rule="evenodd" clip-rule="evenodd" d="M62 96C65.3137 96 68 93.3137 68 90C68 86.6863 65.3137 84 62 84C58.6863 84 56 86.6863 56 90C56 93.3137 58.6863 96 62 96Z" fill="black" fill-opacity="0.28"/>
<path fill-rule="evenodd" clip-rule="evenodd" d="M6 96C9.31371 96 12 93.3137 12 90C12 86.6863 9.31371 84 6 84C2.68629 84 0 86.6863 0 90C0 93.3137 2.68629 96 6 96Z" fill="black" fill-opacity="0.28"/>
<path fill-rule="evenodd" clip-rule="evenodd" d="M482 152C485.314 152 488 149.314 488 146C488 142.686 485.314 140 482 140C478.686 140 476 142.686 476 146C476 149.314 478.686 152 482 152Z" fill="black" fill-opacity="0.28"/>
<path fill-rule="evenodd" clip-rule="evenodd" d="M426 152C429.314 152 432 149.314 432 146C432 142.686 429.314 140 426 140C422.686 140 420 142.686 420 146C420 149.314 422.686 152 426 152Z" fill="black" fill-opacity="0.28"/>
<path fill-rule="evenodd" clip-rule="evenodd" d="M370 152C373.314 152 376 149.314 376 146C376 142.686 373.314 140 370 140C366.686 140 364 142.686 364 146C364 149.314 366.686 152 370 152Z" fill="black" fill-opacity="0.28"/>
<path fill-rule="evenodd" clip-rule="evenodd" d="M314 152C317.314 152 320 149.314 320 146C320 142.686 317.314 140 314 140C310.686 140 308 142.686 308 146C308 149.314 310.686 152 314 152Z" fill="black" fill-opacity="0.28"/>
<path fill-rule="evenodd" clip-rule="evenodd" d="M258 152C261.314 152 264 149.314 264 146C264 142.686 261.314 140 258 140C254.686 140 252 142.686 252 146C252 149.314 254.686 152 258 152Z" fill="black" fill-opacity="0.28"/>
<path fill-rule="evenodd" clip-rule="evenodd" d="M202 152C205.314 152 208 149.314 208 146C208 142.686 205.314 140 202 140C198.686 140 196 142.686 196 146C196 149.314 198.686 152 202 152Z" fill="black" fill-opacity="0.28"/>
<path fill-rule="evenodd" clip-rule="evenodd" d="M146 152C149.314 152 152 149.314 152 146C152 142.686 149.314 140 146 140C142.686 140 140 142.686 140 146C140 149.314 142.686 152 146 152Z" fill="black" fill-opacity="0.28"/>
<path fill-rule="evenodd" clip-rule="evenodd" d="M90 152C93.3137 152 96 149.314 96 146C96 142.686 93.3137 140 90 140C86.6863 140 84 142.686 84 146C84 149.314 86.6863 152 90 152Z" fill="black" fill-opacity="0.28"/>
<path fill-rule="evenodd" clip-rule="evenodd" d="M34 152C37.3137 152 40 149.314 40 146C40 142.686 37.3137 140 34 140C30.6863 140 28 142.686 28 146C28 149.314 30.6863 152 34 152Z" fill="black" fill-opacity="0.28"/>
<path fill-rule="evenodd" clip-rule="evenodd" d="M454 152C457.314 152 460 149.314 460 146C460 142.686 457.314 140 454 140C450.686 140 448 142.686 448 146C448 149.314 450.686 152 454 152Z" fill="black" fill-opacity="0.28"/>
<path fill-rule="evenodd" clip-rule="evenodd" d="M398 152C401.314 152 404 149.314 404 146C404 142.686 401.314 140 398 140C394.686 140 392 142.686 392 146C392 149.314 394.686 152 398 152Z" fill="black" fill-opacity="0.28"/>
<path fill-rule="evenodd" clip-rule="evenodd" d="M342 152C345.314 152 348 149.314 348 146C348 142.686 345.314 140 342 140C338.686 140 336 142.686 336 146C336 149.314 338.686 152 342 152Z" fill="black" fill-opacity="0.28"/>
<path fill-rule="evenodd" clip-rule="evenodd" d="M286 152C289.314 152 292 149.314 292 146C292 142.686 289.314 140 286 140C282.686 140 280 142.686 280 146C280 149.314 282.686 152 286 152Z" fill="black" fill-opacity="0.28"/>
<path fill-rule="evenodd" clip-rule="evenodd" d="M230 152C233.314 152 236 149.314 236 146C236 142.686 233.314 140 230 140C226.686 140 224 142.686 224 146C224 149.314 226.686 152 230 152Z" fill="black" fill-opacity="0.28"/>
<path fill-rule="evenodd" clip-rule="evenodd" d="M174 152C177.314 152 180 149.314 180 146C180 142.686 177.314 140 174 140C170.686 140 168 142.686 168 146C168 149.314 170.686 152 174 152Z" fill="black" fill-opacity="0.28"/>
<path fill-rule="evenodd" clip-rule="evenodd" d="M118 152C121.314 152 124 149.314 124 146C124 142.686 121.314 140 118 140C114.686 140 112 142.686 112 146C112 149.314 114.686 152 118 152Z" fill="black" fill-opacity="0.28"/>
<path fill-rule="evenodd" clip-rule="evenodd" d="M62 152C65.3137 152 68 149.314 68 146C68 142.686 65.3137 140 62 140C58.6863 140 56 142.686 56 146C56 149.314 58.6863 152 62 152Z" fill="black" fill-opacity="0.28"/>
<path fill-rule="evenodd" clip-rule="evenodd" d="M6 152C9.31371 152 12 149.314 12 146C12 142.686 9.31371 140 6 140C2.68629 140 0 142.686 0 146C0 149.314 2.68629 152 6 152Z" fill="black" fill-opacity="0.28"/>
<path fill-rule="evenodd" clip-rule="evenodd" d="M482 208C485.314 208 488 205.314 488 202C488 198.686 485.314 196 482 196C478.686 196 476 198.686 476 202C476 205.314 478.686 208 482 208Z" fill="black" fill-opacity="0.28"/>
<path fill-rule="evenodd" clip-rule="evenodd" d="M426 208C429.314 208 432 205.314 432 202C432 198.686 429.314 196 426 196C422.686 196 420 198.686 420 202C420 205.314 422.686 208 426 208Z" fill="black" fill-opacity="0.28"/>
<path fill-rule="evenodd" clip-rule="evenodd" d="M370 208C373.314 208 376 205.314 376 202C376 198.686 373.314 196 370 196C366.686 196 364 198.686 364 202C364 205.314 366.686 208 370 208Z" fill="black" fill-opacity="0.28"/>
<path fill-rule="evenodd" clip-rule="evenodd" d="M314 208C317.314 208 320 205.314 320 202C320 198.686 317.314 196 314 196C310.686 196 308 198.686 308 202C308 205.314 310.686 208 314 208Z" fill="black" fill-opacity="0.28"/>
<path fill-rule="evenodd" clip-rule="evenodd" d="M258 208C261.314 208 264 205.314 264 202C264 198.686 261.314 196 258 196C254.686 196 252 198.686 252 202C252 205.314 254.686 208 258 208Z" fill="black" fill-opacity="0.28"/>
<path fill-rule="evenodd" clip-rule="evenodd" d="M202 208C205.314 208 208 205.314 208 202C208 198.686 205.314 196 202 196C198.686 196 196 198.686 196 202C196 205.314 198.686 208 202 208Z" fill="black" fill-opacity="0.28"/>
<path fill-rule="evenodd" clip-rule="evenodd" d="M146 208C149.314 208 152 205.314 152 202C152 198.686 149.314 196 146 196C142.686 196 140 198.686 140 202C140 205.314 142.686 208 146 208Z" fill="black" fill-opacity="0.28"/>
<path fill-rule="evenodd" clip-rule="evenodd" d="M90 208C93.3137 208 96 205.314 96 202C96 198.686 93.3137 196 90 196C86.6863 196 84 198.686 84 202C84 205.314 86.6863 208 90 208Z" fill="black" fill-opacity="0.28"/>
<path fill-rule="evenodd" clip-rule="evenodd" d="M34 208C37.3137 208 40 205.314 40 202C40 198.686 37.3137 196 34 196C30.6863 196 28 198.686 28 202C28 205.314 30.6863 208 34 208Z" fill="black" fill-opacity="0.28"/>
<path fill-rule="evenodd" clip-rule="evenodd" d="M454 208C457.314 208 460 205.314 460 202C460 198.686 457.314 196 454 196C450.686 196 448 198.686 448 202C448 205.314 450.686 208 454 208Z" fill="black" fill-opacity="0.28"/>
<path fill-rule="evenodd" clip-rule="evenodd" d="M398 208C401.314 208 404 205.314 404 202C404 198.686 401.314 196 398 196C394.686 196 392 198.686 392 202C392 205.314 394.686 208 398 208Z" fill="black" fill-opacity="0.28"/>
<path fill-rule="evenodd" clip-rule="evenodd" d="M342 208C345.314 208 348 205.314 348 202C348 198.686 345.314 196 342 196C338.686 196 336 198.686 336 202C336 205.314 338.686 208 342 208Z" fill="black" fill-opacity="0.28"/>
<path fill-rule="evenodd" clip-rule="evenodd" d="M286 208C289.314 208 292 205.314 292 202C292 198.686 289.314 196 286 196C282.686 196 280 198.686 280 202C280 205.314 282.686 208 286 208Z" fill="black" fill-opacity="0.28"/>
<path fill-rule="evenodd" clip-rule="evenodd" d="M230 208C233.314 208 236 205.314 236 202C236 198.686 233.314 196 230 196C226.686 196 224 198.686 224 202C224 205.314 226.686 208 230 208Z" fill="black" fill-opacity="0.28"/>
<path fill-rule="evenodd" clip-rule="evenodd" d="M174 208C177.314 208 180 205.314 180 202C180 198.686 177.314 196 174 196C170.686 196 168 198.686 168 202C168 205.314 170.686 208 174 208Z" fill="black" fill-opacity="0.28"/>
<path fill-rule="evenodd" clip-rule="evenodd" d="M118 208C121.314 208 124 205.314 124 202C124 198.686 121.314 196 118 196C114.686 196 112 198.686 112 202C112 205.314 114.686 208 118 208Z" fill="black" fill-opacity="0.28"/>
<path fill-rule="evenodd" clip-rule="evenodd" d="M62 208C65.3137 208 68 205.314 68 202C68 198.686 65.3137 196 62 196C58.6863 196 56 198.686 56 202C56 205.314 58.6863 208 62 208Z" fill="black" fill-opacity="0.28"/>
<path fill-rule="evenodd" clip-rule="evenodd" d="M6 208C9.31371 208 12 205.314 12 202C12 198.686 9.31371 196 6 196C2.68629 196 0 198.686 0 202C0 205.314 2.68629 208 6 208Z" fill="black" fill-opacity="0.28"/>
<path fill-rule="evenodd" clip-rule="evenodd" d="M482 12C485.314 12 488 9.31371 488 6C488 2.68629 485.314 0 482 0C478.686 0 476 2.68629 476 6C476 9.31371 478.686 12 482 12Z" fill="black" fill-opacity="0.28"/>
<path fill-rule="evenodd" clip-rule="evenodd" d="M426 12C429.314 12 432 9.31371 432 6C432 2.68629 429.314 0 426 0C422.686 0 420 2.68629 420 6C420 9.31371 422.686 12 426 12Z" fill="black" fill-opacity="0.28"/>
<path fill-rule="evenodd" clip-rule="evenodd" d="M370 12C373.314 12 376 9.31371 376 6C376 2.68629 373.314 0 370 0C366.686 0 364 2.68629 364 6C364 9.31371 366.686 12 370 12Z" fill="black" fill-opacity="0.28"/>
<path fill-rule="evenodd" clip-rule="evenodd" d="M314 12C317.314 12 320 9.31371 320 6C320 2.68629 317.314 0 314 0C310.686 0 308 2.68629 308 6C308 9.31371 310.686 12 314 12Z" fill="black" fill-opacity="0.28"/>
<path fill-rule="evenodd" clip-rule="evenodd" d="M258 12C261.314 12 264 9.31371 264 6C264 2.68629 261.314 0 258 0C254.686 0 252 2.68629 252 6C252 9.31371 254.686 12 258 12Z" fill="black" fill-opacity="0.28"/>
<path fill-rule="evenodd" clip-rule="evenodd" d="M202 12C205.314 12 208 9.31371 208 6C208 2.68629 205.314 0 202 0C198.686 0 196 2.68629 196 6C196 9.31371 198.686 12 202 12Z" fill="black" fill-opacity="0.28"/>
<path fill-rule="evenodd" clip-rule="evenodd" d="M146 12C149.314 12 152 9.31371 152 6C152 2.68629 149.314 0 146 0C142.686 0 140 2.68629 140 6C140 9.31371 142.686 12 146 12Z" fill="black" fill-opacity="0.28"/>
<path fill-rule="evenodd" clip-rule="evenodd" d="M90 12C93.3137 12 96 9.31371 96 6C96 2.68629 93.3137 0 90 0C86.6863 0 84 2.68629 84 6C84 9.31371 86.6863 12 90 12Z" fill="black" fill-opacity="0.28"/>
<path fill-rule="evenodd" clip-rule="evenodd" d="M34 12C37.3137 12 40 9.31371 40 6C40 2.68629 37.3137 0 34 0C30.6863 0 28 2.68629 28 6C28 9.31371 30.6863 12 34 12Z" fill="black" fill-opacity="0.28"/>
<path fill-rule="evenodd" clip-rule="evenodd" d="M454 12C457.314 12 460 9.31371 460 6C460 2.68629 457.314 0 454 0C450.686 0 448 2.68629 448 6C448 9.31371 450.686 12 454 12Z" fill="black" fill-opacity="0.28"/>
<path fill-rule="evenodd" clip-rule="evenodd" d="M398 12C401.314 12 404 9.31371 404 6C404 2.68629 401.314 0 398 0C394.686 0 392 2.68629 392 6C392 9.31371 394.686 12 398 12Z" fill="black" fill-opacity="0.28"/>
<path fill-rule="evenodd" clip-rule="evenodd" d="M342 12C345.314 12 348 9.31371 348 6C348 2.68629 345.314 0 342 0C338.686 0 336 2.68629 336 6C336 9.31371 338.686 12 342 12Z" fill="black" fill-opacity="0.28"/>
<path fill-rule="evenodd" clip-rule="evenodd" d="M286 12C289.314 12 292 9.31371 292 6C292 2.68629 289.314 0 286 0C282.686 0 280 2.68629 280 6C280 9.31371 282.686 12 286 12Z" fill="black" fill-opacity="0.28"/>
<path fill-rule="evenodd" clip-rule="evenodd" d="M230 12C233.314 12 236 9.31371 236 6C236 2.68629 233.314 0 230 0C226.686 0 224 2.68629 224 6C224 9.31371 226.686 12 230 12Z" fill="black" fill-opacity="0.28"/>
<path fill-rule="evenodd" clip-rule="evenodd" d="M174 12C177.314 12 180 9.31371 180 6C180 2.68629 177.314 0 174 0C170.686 0 168 2.68629 168 6C168 9.31371 170.686 12 174 12Z" fill="black" fill-opacity="0.28"/>
<path fill-rule="evenodd" clip-rule="evenodd" d="M118 12C121.314 12 124 9.31371 124 6C124 2.68629 121.314 0 118 0C114.686 0 112 2.68629 112 6C112 9.31371 114.686 12 118 12Z" fill="black" fill-opacity="0.28"/>
<path fill-rule="evenodd" clip-rule="evenodd" d="M62 12C65.3137 12 68 9.31371 68 6C68 2.68629 65.3137 0 62 0C58.6863 0 56 2.68629 56 6C56 9.31371 58.6863 12 62 12Z" fill="black" fill-opacity="0.28"/>
<path fill-rule="evenodd" clip-rule="evenodd" d="M6 12C9.31371 12 12 9.31371 12 6C12 2.68629 9.31371 0 6 0C2.68629 0 0 2.68629 0 6C0 9.31371 2.68629 12 6 12Z" fill="black" fill-opacity="0.28"/>
<path fill-rule="evenodd" clip-rule="evenodd" d="M482 68C485.314 68 488 65.3137 488 62C488 58.6863 485.314 56 482 56C478.686 56 476 58.6863 476 62C476 65.3137 478.686 68 482 68Z" fill="black" fill-opacity="0.28"/>
<path fill-rule="evenodd" clip-rule="evenodd" d="M426 68C429.314 68 432 65.3137 432 62C432 58.6863 429.314 56 426 56C422.686 56 420 58.6863 420 62C420 65.3137 422.686 68 426 68Z" fill="black" fill-opacity="0.28"/>
<path fill-rule="evenodd" clip-rule="evenodd" d="M370 68C373.314 68 376 65.3137 376 62C376 58.6863 373.314 56 370 56C366.686 56 364 58.6863 364 62C364 65.3137 366.686 68 370 68Z" fill="black" fill-opacity="0.28"/>
<path fill-rule="evenodd" clip-rule="evenodd" d="M314 68C317.314 68 320 65.3137 320 62C320 58.6863 317.314 56 314 56C310.686 56 308 58.6863 308 62C308 65.3137 310.686 68 314 68Z" fill="black" fill-opacity="0.28"/>
<path fill-rule="evenodd" clip-rule="evenodd" d="M258 68C261.314 68 264 65.3137 264 62C264 58.6863 261.314 56 258 56C254.686 56 252 58.6863 252 62C252 65.3137 254.686 68 258 68Z" fill="black" fill-opacity="0.28"/>
<path fill-rule="evenodd" clip-rule="evenodd" d="M202 68C205.314 68 208 65.3137 208 62C208 58.6863 205.314 56 202 56C198.686 56 196 58.6863 196 62C196 65.3137 198.686 68 202 68Z" fill="black" fill-opacity="0.28"/>
<path fill-rule="evenodd" clip-rule="evenodd" d="M146 68C149.314 68 152 65.3137 152 62C152 58.6863 149.314 56 146 56C142.686 56 140 58.6863 140 62C140 65.3137 142.686 68 146 68Z" fill="black" fill-opacity="0.28"/>
<path fill-rule="evenodd" clip-rule="evenodd" d="M90 68C93.3137 68 96 65.3137 96 62C96 58.6863 93.3137 56 90 56C86.6863 56 84 58.6863 84 62C84 65.3137 86.6863 68 90 68Z" fill="black" fill-opacity="0.28"/>
<path fill-rule="evenodd" clip-rule="evenodd" d="M34 68C37.3137 68 40 65.3137 40 62C40 58.6863 37.3137 56 34 56C30.6863 56 28 58.6863 28 62C28 65.3137 30.6863 68 34 68Z" fill="black" fill-opacity="0.28"/>
<path fill-rule="evenodd" clip-rule="evenodd" d="M454 68C457.314 68 460 65.3137 460 62C460 58.6863 457.314 56 454 56C450.686 56 448 58.6863 448 62C448 65.3137 450.686 68 454 68Z" fill="black" fill-opacity="0.28"/>
<path fill-rule="evenodd" clip-rule="evenodd" d="M398 68C401.314 68 404 65.3137 404 62C404 58.6863 401.314 56 398 56C394.686 56 392 58.6863 392 62C392 65.3137 394.686 68 398 68Z" fill="black" fill-opacity="0.28"/>
<path fill-rule="evenodd" clip-rule="evenodd" d="M342 68C345.314 68 348 65.3137 348 62C348 58.6863 345.314 56 342 56C338.686 56 336 58.6863 336 62C336 65.3137 338.686 68 342 68Z" fill="black" fill-opacity="0.28"/>
<path fill-rule="evenodd" clip-rule="evenodd" d="M286 68C289.314 68 292 65.3137 292 62C292 58.6863 289.314 56 286 56C282.686 56 280 58.6863 280 62C280 65.3137 282.686 68 286 68Z" fill="black" fill-opacity="0.28"/>
<path fill-rule="evenodd" clip-rule="evenodd" d="M230 68C233.314 68 236 65.3137 236 62C236 58.6863 233.314 56 230 56C226.686 56 224 58.6863 224 62C224 65.3137 226.686 68 230 68Z" fill="black" fill-opacity="0.28"/>
<path fill-rule="evenodd" clip-rule="evenodd" d="M174 68C177.314 68 180 65.3137 180 62C180 58.6863 177.314 56 174 56C170.686 56 168 58.6863 168 62C168 65.3137 170.686 68 174 68Z" fill="black" fill-opacity="0.28"/>
<path fill-rule="evenodd" clip-rule="evenodd" d="M118 68C121.314 68 124 65.3137 124 62C124 58.6863 121.314 56 118 56C114.686 56 112 58.6863 112 62C112 65.3137 114.686 68 118 68Z" fill="black" fill-opacity="0.28"/>
<path fill-rule="evenodd" clip-rule="evenodd" d="M62 68C65.3137 68 68 65.3137 68 62C68 58.6863 65.3137 56 62 56C58.6863 56 56 58.6863 56 62C56 65.3137 58.6863 68 62 68Z" fill="black" fill-opacity="0.28"/>
<path fill-rule="evenodd" clip-rule="evenodd" d="M6 68C9.31371 68 12 65.3137 12 62C12 58.6863 9.31371 56 6 56C2.68629 56 0 58.6863 0 62C0 65.3137 2.68629 68 6 68Z" fill="black" fill-opacity="0.28"/>
<path fill-rule="evenodd" clip-rule="evenodd" d="M482 124C485.314 124 488 121.314 488 118C488 114.686 485.314 112 482 112C478.686 112 476 114.686 476 118C476 121.314 478.686 124 482 124Z" fill="black" fill-opacity="0.28"/>
<path fill-rule="evenodd" clip-rule="evenodd" d="M426 124C429.314 124 432 121.314 432 118C432 114.686 429.314 112 426 112C422.686 112 420 114.686 420 118C420 121.314 422.686 124 426 124Z" fill="black" fill-opacity="0.28"/>
<path fill-rule="evenodd" clip-rule="evenodd" d="M370 124C373.314 124 376 121.314 376 118C376 114.686 373.314 112 370 112C366.686 112 364 114.686 364 118C364 121.314 366.686 124 370 124Z" fill="black" fill-opacity="0.28"/>
<path fill-rule="evenodd" clip-rule="evenodd" d="M314 124C317.314 124 320 121.314 320 118C320 114.686 317.314 112 314 112C310.686 112 308 114.686 308 118C308 121.314 310.686 124 314 124Z" fill="black" fill-opacity="0.28"/>
<path fill-rule="evenodd" clip-rule="evenodd" d="M258 124C261.314 124 264 121.314 264 118C264 114.686 261.314 112 258 112C254.686 112 252 114.686 252 118C252 121.314 254.686 124 258 124Z" fill="black" fill-opacity="0.28"/>
<path fill-rule="evenodd" clip-rule="evenodd" d="M202 124C205.314 124 208 121.314 208 118C208 114.686 205.314 112 202 112C198.686 112 196 114.686 196 118C196 121.314 198.686 124 202 124Z" fill="black" fill-opacity="0.28"/>
<path fill-rule="evenodd" clip-rule="evenodd" d="M146 124C149.314 124 152 121.314 152 118C152 114.686 149.314 112 146 112C142.686 112 140 114.686 140 118C140 121.314 142.686 124 146 124Z" fill="black" fill-opacity="0.28"/>
<path fill-rule="evenodd" clip-rule="evenodd" d="M90 124C93.3137 124 96 121.314 96 118C96 114.686 93.3137 112 90 112C86.6863 112 84 114.686 84 118C84 121.314 86.6863 124 90 124Z" fill="black" fill-opacity="0.28"/>
<path fill-rule="evenodd" clip-rule="evenodd" d="M34 124C37.3137 124 40 121.314 40 118C40 114.686 37.3137 112 34 112C30.6863 112 28 114.686 28 118C28 121.314 30.6863 124 34 124Z" fill="black" fill-opacity="0.28"/>
<path fill-rule="evenodd" clip-rule="evenodd" d="M454 124C457.314 124 460 121.314 460 118C460 114.686 457.314 112 454 112C450.686 112 448 114.686 448 118C448 121.314 450.686 124 454 124Z" fill="black" fill-opacity="0.28"/>
<path fill-rule="evenodd" clip-rule="evenodd" d="M398 124C401.314 124 404 121.314 404 118C404 114.686 401.314 112 398 112C394.686 112 392 114.686 392 118C392 121.314 394.686 124 398 124Z" fill="black" fill-opacity="0.28"/>
<path fill-rule="evenodd" clip-rule="evenodd" d="M342 124C345.314 124 348 121.314 348 118C348 114.686 345.314 112 342 112C338.686 112 336 114.686 336 118C336 121.314 338.686 124 342 124Z" fill="black" fill-opacity="0.28"/>
<path fill-rule="evenodd" clip-rule="evenodd" d="M286 124C289.314 124 292 121.314 292 118C292 114.686 289.314 112 286 112C282.686 112 280 114.686 280 118C280 121.314 282.686 124 286 124Z" fill="black" fill-opacity="0.28"/>
<path fill-rule="evenodd" clip-rule="evenodd" d="M230 124C233.314 124 236 121.314 236 118C236 114.686 233.314 112 230 112C226.686 112 224 114.686 224 118C224 121.314 226.686 124 230 124Z" fill="black" fill-opacity="0.28"/>
<path fill-rule="evenodd" clip-rule="evenodd" d="M174 124C177.314 124 180 121.314 180 118C180 114.686 177.314 112 174 112C170.686 112 168 114.686 168 118C168 121.314 170.686 124 174 124Z" fill="black" fill-opacity="0.28"/>
<path fill-rule="evenodd" clip-rule="evenodd" d="M118 124C121.314 124 124 121.314 124 118C124 114.686 121.314 112 118 112C114.686 112 112 114.686 112 118C112 121.314 114.686 124 118 124Z" fill="black" fill-opacity="0.28"/>
<path fill-rule="evenodd" clip-rule="evenodd" d="M62 124C65.3137 124 68 121.314 68 118C68 114.686 65.3137 112 62 112C58.6863 112 56 114.686 56 118C56 121.314 58.6863 124 62 124Z" fill="black" fill-opacity="0.28"/>
<path fill-rule="evenodd" clip-rule="evenodd" d="M6 124C9.31371 124 12 121.314 12 118C12 114.686 9.31371 112 6 112C2.68629 112 0 114.686 0 118C0 121.314 2.68629 124 6 124Z" fill="black" fill-opacity="0.28"/>
<path fill-rule="evenodd" clip-rule="evenodd" d="M482 180C485.314 180 488 177.314 488 174C488 170.686 485.314 168 482 168C478.686 168 476 170.686 476 174C476 177.314 478.686 180 482 180Z" fill="black" fill-opacity="0.28"/>
<path fill-rule="evenodd" clip-rule="evenodd" d="M426 180C429.314 180 432 177.314 432 174C432 170.686 429.314 168 426 168C422.686 168 420 170.686 420 174C420 177.314 422.686 180 426 180Z" fill="black" fill-opacity="0.28"/>
<path fill-rule="evenodd" clip-rule="evenodd" d="M370 180C373.314 180 376 177.314 376 174C376 170.686 373.314 168 370 168C366.686 168 364 170.686 364 174C364 177.314 366.686 180 370 180Z" fill="black" fill-opacity="0.28"/>
<path fill-rule="evenodd" clip-rule="evenodd" d="M314 180C317.314 180 320 177.314 320 174C320 170.686 317.314 168 314 168C310.686 168 308 170.686 308 174C308 177.314 310.686 180 314 180Z" fill="black" fill-opacity="0.28"/>
<path fill-rule="evenodd" clip-rule="evenodd" d="M258 180C261.314 180 264 177.314 264 174C264 170.686 261.314 168 258 168C254.686 168 252 170.686 252 174C252 177.314 254.686 180 258 180Z" fill="black" fill-opacity="0.28"/>
<path fill-rule="evenodd" clip-rule="evenodd" d="M202 180C205.314 180 208 177.314 208 174C208 170.686 205.314 168 202 168C198.686 168 196 170.686 196 174C196 177.314 198.686 180 202 180Z" fill="black" fill-opacity="0.28"/>
<path fill-rule="evenodd" clip-rule="evenodd" d="M146 180C149.314 180 152 177.314 152 174C152 170.686 149.314 168 146 168C142.686 168 140 170.686 140 174C140 177.314 142.686 180 146 180Z" fill="black" fill-opacity="0.28"/>
<path fill-rule="evenodd" clip-rule="evenodd" d="M90 180C93.3137 180 96 177.314 96 174C96 170.686 93.3137 168 90 168C86.6863 168 84 170.686 84 174C84 177.314 86.6863 180 90 180Z" fill="black" fill-opacity="0.28"/>
<path fill-rule="evenodd" clip-rule="evenodd" d="M34 180C37.3137 180 40 177.314 40 174C40 170.686 37.3137 168 34 168C30.6863 168 28 170.686 28 174C28 177.314 30.6863 180 34 180Z" fill="black" fill-opacity="0.28"/>
<path fill-rule="evenodd" clip-rule="evenodd" d="M454 180C457.314 180 460 177.314 460 174C460 170.686 457.314 168 454 168C450.686 168 448 170.686 448 174C448 177.314 450.686 180 454 180Z" fill="black" fill-opacity="0.28"/>
<path fill-rule="evenodd" clip-rule="evenodd" d="M398 180C401.314 180 404 177.314 404 174C404 170.686 401.314 168 398 168C394.686 168 392 170.686 392 174C392 177.314 394.686 180 398 180Z" fill="black" fill-opacity="0.28"/>
<path fill-rule="evenodd" clip-rule="evenodd" d="M342 180C345.314 180 348 177.314 348 174C348 170.686 345.314 168 342 168C338.686 168 336 170.686 336 174C336 177.314 338.686 180 342 180Z" fill="black" fill-opacity="0.28"/>
<path fill-rule="evenodd" clip-rule="evenodd" d="M286 180C289.314 180 292 177.314 292 174C292 170.686 289.314 168 286 168C282.686 168 280 170.686 280 174C280 177.314 282.686 180 286 180Z" fill="black" fill-opacity="0.28"/>
<path fill-rule="evenodd" clip-rule="evenodd" d="M230 180C233.314 180 236 177.314 236 174C236 170.686 233.314 168 230 168C226.686 168 224 170.686 224 174C224 177.314 226.686 180 230 180Z" fill="black" fill-opacity="0.28"/>
<path fill-rule="evenodd" clip-rule="evenodd" d="M174 180C177.314 180 180 177.314 180 174C180 170.686 177.314 168 174 168C170.686 168 168 170.686 168 174C168 177.314 170.686 180 174 180Z" fill="black" fill-opacity="0.28"/>
<path fill-rule="evenodd" clip-rule="evenodd" d="M118 180C121.314 180 124 177.314 124 174C124 170.686 121.314 168 118 168C114.686 168 112 170.686 112 174C112 177.314 114.686 180 118 180Z" fill="black" fill-opacity="0.28"/>
<path fill-rule="evenodd" clip-rule="evenodd" d="M62 180C65.3137 180 68 177.314 68 174C68 170.686 65.3137 168 62 168C58.6863 168 56 170.686 56 174C56 177.314 58.6863 180 62 180Z" fill="black" fill-opacity="0.28"/>
<path fill-rule="evenodd" clip-rule="evenodd" d="M6 180C9.31371 180 12 177.314 12 174C12 170.686 9.31371 168 6 168C2.68629 168 0 170.686 0 174C0 177.314 2.68629 180 6 180Z" fill="black" fill-opacity="0.28"/>
</g>
<g opacity="0.9">
<path fill-rule="evenodd" clip-rule="evenodd" d="M482 269C485.314 269 488 266.314 488 263C488 259.686 485.314 257 482 257C478.686 257 476 259.686 476 263C476 266.314 478.686 269 482 269Z" fill="black" fill-opacity="0.28"/>
<path fill-rule="evenodd" clip-rule="evenodd" d="M426 269C429.314 269 432 266.314 432 263C432 259.686 429.314 257 426 257C422.686 257 420 259.686 420 263C420 266.314 422.686 269 426 269Z" fill="black" fill-opacity="0.28"/>
<path fill-rule="evenodd" clip-rule="evenodd" d="M370 269C373.314 269 376 266.314 376 263C376 259.686 373.314 257 370 257C366.686 257 364 259.686 364 263C364 266.314 366.686 269 370 269Z" fill="black" fill-opacity="0.28"/>
<path fill-rule="evenodd" clip-rule="evenodd" d="M314 269C317.314 269 320 266.314 320 263C320 259.686 317.314 257 314 257C310.686 257 308 259.686 308 263C308 266.314 310.686 269 314 269Z" fill="black" fill-opacity="0.28"/>
<path fill-rule="evenodd" clip-rule="evenodd" d="M258 269C261.314 269 264 266.314 264 263C264 259.686 261.314 257 258 257C254.686 257 252 259.686 252 263C252 266.314 254.686 269 258 269Z" fill="black" fill-opacity="0.28"/>
<path fill-rule="evenodd" clip-rule="evenodd" d="M202 269C205.314 269 208 266.314 208 263C208 259.686 205.314 257 202 257C198.686 257 196 259.686 196 263C196 266.314 198.686 269 202 269Z" fill="black" fill-opacity="0.28"/>
<path fill-rule="evenodd" clip-rule="evenodd" d="M146 269C149.314 269 152 266.314 152 263C152 259.686 149.314 257 146 257C142.686 257 140 259.686 140 263C140 266.314 142.686 269 146 269Z" fill="black" fill-opacity="0.28"/>
<path fill-rule="evenodd" clip-rule="evenodd" d="M90 269C93.3137 269 96 266.314 96 263C96 259.686 93.3137 257 90 257C86.6863 257 84 259.686 84 263C84 266.314 86.6863 269 90 269Z" fill="black" fill-opacity="0.28"/>
<path fill-rule="evenodd" clip-rule="evenodd" d="M34 269C37.3137 269 40 266.314 40 263C40 259.686 37.3137 257 34 257C30.6863 257 28 259.686 28 263C28 266.314 30.6863 269 34 269Z" fill="black" fill-opacity="0.28"/>
<path fill-rule="evenodd" clip-rule="evenodd" d="M454 269C457.314 269 460 266.314 460 263C460 259.686 457.314 257 454 257C450.686 257 448 259.686 448 263C448 266.314 450.686 269 454 269Z" fill="black" fill-opacity="0.28"/>
<path fill-rule="evenodd" clip-rule="evenodd" d="M398 269C401.314 269 404 266.314 404 263C404 259.686 401.314 257 398 257C394.686 257 392 259.686 392 263C392 266.314 394.686 269 398 269Z" fill="black" fill-opacity="0.28"/>
<path fill-rule="evenodd" clip-rule="evenodd" d="M342 269C345.314 269 348 266.314 348 263C348 259.686 345.314 257 342 257C338.686 257 336 259.686 336 263C336 266.314 338.686 269 342 269Z" fill="black" fill-opacity="0.28"/>
<path fill-rule="evenodd" clip-rule="evenodd" d="M286 269C289.314 269 292 266.314 292 263C292 259.686 289.314 257 286 257C282.686 257 280 259.686 280 263C280 266.314 282.686 269 286 269Z" fill="black" fill-opacity="0.28"/>
<path fill-rule="evenodd" clip-rule="evenodd" d="M230 269C233.314 269 236 266.314 236 263C236 259.686 233.314 257 230 257C226.686 257 224 259.686 224 263C224 266.314 226.686 269 230 269Z" fill="black" fill-opacity="0.28"/>
<path fill-rule="evenodd" clip-rule="evenodd" d="M174 269C177.314 269 180 266.314 180 263C180 259.686 177.314 257 174 257C170.686 257 168 259.686 168 263C168 266.314 170.686 269 174 269Z" fill="black" fill-opacity="0.28"/>
<path fill-rule="evenodd" clip-rule="evenodd" d="M118 269C121.314 269 124 266.314 124 263C124 259.686 121.314 257 118 257C114.686 257 112 259.686 112 263C112 266.314 114.686 269 118 269Z" fill="black" fill-opacity="0.28"/>
<path fill-rule="evenodd" clip-rule="evenodd" d="M62 269C65.3137 269 68 266.314 68 263C68 259.686 65.3137 257 62 257C58.6863 257 56 259.686 56 263C56 266.314 58.6863 269 62 269Z" fill="black" fill-opacity="0.28"/>
<path fill-rule="evenodd" clip-rule="evenodd" d="M6 269C9.31371 269 12 266.314 12 263C12 259.686 9.31371 257 6 257C2.68629 257 0 259.686 0 263C0 266.314 2.68629 269 6 269Z" fill="black" fill-opacity="0.28"/>
<path fill-rule="evenodd" clip-rule="evenodd" d="M482 325C485.314 325 488 322.314 488 319C488 315.686 485.314 313 482 313C478.686 313 476 315.686 476 319C476 322.314 478.686 325 482 325Z" fill="black" fill-opacity="0.28"/>
<path fill-rule="evenodd" clip-rule="evenodd" d="M426 325C429.314 325 432 322.314 432 319C432 315.686 429.314 313 426 313C422.686 313 420 315.686 420 319C420 322.314 422.686 325 426 325Z" fill="black" fill-opacity="0.28"/>
<path fill-rule="evenodd" clip-rule="evenodd" d="M370 325C373.314 325 376 322.314 376 319C376 315.686 373.314 313 370 313C366.686 313 364 315.686 364 319C364 322.314 366.686 325 370 325Z" fill="black" fill-opacity="0.28"/>
<path fill-rule="evenodd" clip-rule="evenodd" d="M314 325C317.314 325 320 322.314 320 319C320 315.686 317.314 313 314 313C310.686 313 308 315.686 308 319C308 322.314 310.686 325 314 325Z" fill="black" fill-opacity="0.28"/>
<path fill-rule="evenodd" clip-rule="evenodd" d="M258 325C261.314 325 264 322.314 264 319C264 315.686 261.314 313 258 313C254.686 313 252 315.686 252 319C252 322.314 254.686 325 258 325Z" fill="black" fill-opacity="0.28"/>
<path fill-rule="evenodd" clip-rule="evenodd" d="M202 325C205.314 325 208 322.314 208 319C208 315.686 205.314 313 202 313C198.686 313 196 315.686 196 319C196 322.314 198.686 325 202 325Z" fill="black" fill-opacity="0.28"/>
<path fill-rule="evenodd" clip-rule="evenodd" d="M146 325C149.314 325 152 322.314 152 319C152 315.686 149.314 313 146 313C142.686 313 140 315.686 140 319C140 322.314 142.686 325 146 325Z" fill="black" fill-opacity="0.28"/>
<path fill-rule="evenodd" clip-rule="evenodd" d="M90 325C93.3137 325 96 322.314 96 319C96 315.686 93.3137 313 90 313C86.6863 313 84 315.686 84 319C84 322.314 86.6863 325 90 325Z" fill="black" fill-opacity="0.28"/>
<path fill-rule="evenodd" clip-rule="evenodd" d="M34 325C37.3137 325 40 322.314 40 319C40 315.686 37.3137 313 34 313C30.6863 313 28 315.686 28 319C28 322.314 30.6863 325 34 325Z" fill="black" fill-opacity="0.28"/>
<path fill-rule="evenodd" clip-rule="evenodd" d="M454 325C457.314 325 460 322.314 460 319C460 315.686 457.314 313 454 313C450.686 313 448 315.686 448 319C448 322.314 450.686 325 454 325Z" fill="black" fill-opacity="0.28"/>
<path fill-rule="evenodd" clip-rule="evenodd" d="M398 325C401.314 325 404 322.314 404 319C404 315.686 401.314 313 398 313C394.686 313 392 315.686 392 319C392 322.314 394.686 325 398 325Z" fill="black" fill-opacity="0.28"/>
<path fill-rule="evenodd" clip-rule="evenodd" d="M342 325C345.314 325 348 322.314 348 319C348 315.686 345.314 313 342 313C338.686 313 336 315.686 336 319C336 322.314 338.686 325 342 325Z" fill="black" fill-opacity="0.28"/>
<path fill-rule="evenodd" clip-rule="evenodd" d="M286 325C289.314 325 292 322.314 292 319C292 315.686 289.314 313 286 313C282.686 313 280 315.686 280 319C280 322.314 282.686 325 286 325Z" fill="black" fill-opacity="0.28"/>
<path fill-rule="evenodd" clip-rule="evenodd" d="M230 325C233.314 325 236 322.314 236 319C236 315.686 233.314 313 230 313C226.686 313 224 315.686 224 319C224 322.314 226.686 325 230 325Z" fill="black" fill-opacity="0.28"/>
<path fill-rule="evenodd" clip-rule="evenodd" d="M174 325C177.314 325 180 322.314 180 319C180 315.686 177.314 313 174 313C170.686 313 168 315.686 168 319C168 322.314 170.686 325 174 325Z" fill="black" fill-opacity="0.28"/>
<path fill-rule="evenodd" clip-rule="evenodd" d="M118 325C121.314 325 124 322.314 124 319C124 315.686 121.314 313 118 313C114.686 313 112 315.686 112 319C112 322.314 114.686 325 118 325Z" fill="black" fill-opacity="0.28"/>
<path fill-rule="evenodd" clip-rule="evenodd" d="M62 325C65.3137 325 68 322.314 68 319C68 315.686 65.3137 313 62 313C58.6863 313 56 315.686 56 319C56 322.314 58.6863 325 62 325Z" fill="black" fill-opacity="0.28"/>
<path fill-rule="evenodd" clip-rule="evenodd" d="M6 325C9.31371 325 12 322.314 12 319C12 315.686 9.31371 313 6 313C2.68629 313 0 315.686 0 319C0 322.314 2.68629 325 6 325Z" fill="black" fill-opacity="0.28"/>
<path fill-rule="evenodd" clip-rule="evenodd" d="M482 381C485.314 381 488 378.314 488 375C488 371.686 485.314 369 482 369C478.686 369 476 371.686 476 375C476 378.314 478.686 381 482 381Z" fill="black" fill-opacity="0.28"/>
<path fill-rule="evenodd" clip-rule="evenodd" d="M426 381C429.314 381 432 378.314 432 375C432 371.686 429.314 369 426 369C422.686 369 420 371.686 420 375C420 378.314 422.686 381 426 381Z" fill="black" fill-opacity="0.28"/>
<path fill-rule="evenodd" clip-rule="evenodd" d="M370 381C373.314 381 376 378.314 376 375C376 371.686 373.314 369 370 369C366.686 369 364 371.686 364 375C364 378.314 366.686 381 370 381Z" fill="black" fill-opacity="0.28"/>
<path fill-rule="evenodd" clip-rule="evenodd" d="M314 381C317.314 381 320 378.314 320 375C320 371.686 317.314 369 314 369C310.686 369 308 371.686 308 375C308 378.314 310.686 381 314 381Z" fill="black" fill-opacity="0.28"/>
<path fill-rule="evenodd" clip-rule="evenodd" d="M258 381C261.314 381 264 378.314 264 375C264 371.686 261.314 369 258 369C254.686 369 252 371.686 252 375C252 378.314 254.686 381 258 381Z" fill="black" fill-opacity="0.28"/>
<path fill-rule="evenodd" clip-rule="evenodd" d="M202 381C205.314 381 208 378.314 208 375C208 371.686 205.314 369 202 369C198.686 369 196 371.686 196 375C196 378.314 198.686 381 202 381Z" fill="black" fill-opacity="0.28"/>
<path fill-rule="evenodd" clip-rule="evenodd" d="M146 381C149.314 381 152 378.314 152 375C152 371.686 149.314 369 146 369C142.686 369 140 371.686 140 375C140 378.314 142.686 381 146 381Z" fill="black" fill-opacity="0.28"/>
<path fill-rule="evenodd" clip-rule="evenodd" d="M90 381C93.3137 381 96 378.314 96 375C96 371.686 93.3137 369 90 369C86.6863 369 84 371.686 84 375C84 378.314 86.6863 381 90 381Z" fill="black" fill-opacity="0.28"/>
<path fill-rule="evenodd" clip-rule="evenodd" d="M34 381C37.3137 381 40 378.314 40 375C40 371.686 37.3137 369 34 369C30.6863 369 28 371.686 28 375C28 378.314 30.6863 381 34 381Z" fill="black" fill-opacity="0.28"/>
<path fill-rule="evenodd" clip-rule="evenodd" d="M454 381C457.314 381 460 378.314 460 375C460 371.686 457.314 369 454 369C450.686 369 448 371.686 448 375C448 378.314 450.686 381 454 381Z" fill="black" fill-opacity="0.28"/>
<path fill-rule="evenodd" clip-rule="evenodd" d="M398 381C401.314 381 404 378.314 404 375C404 371.686 401.314 369 398 369C394.686 369 392 371.686 392 375C392 378.314 394.686 381 398 381Z" fill="black" fill-opacity="0.28"/>
<path fill-rule="evenodd" clip-rule="evenodd" d="M342 381C345.314 381 348 378.314 348 375C348 371.686 345.314 369 342 369C338.686 369 336 371.686 336 375C336 378.314 338.686 381 342 381Z" fill="black" fill-opacity="0.28"/>
<path fill-rule="evenodd" clip-rule="evenodd" d="M286 381C289.314 381 292 378.314 292 375C292 371.686 289.314 369 286 369C282.686 369 280 371.686 280 375C280 378.314 282.686 381 286 381Z" fill="black" fill-opacity="0.28"/>
<path fill-rule="evenodd" clip-rule="evenodd" d="M230 381C233.314 381 236 378.314 236 375C236 371.686 233.314 369 230 369C226.686 369 224 371.686 224 375C224 378.314 226.686 381 230 381Z" fill="black" fill-opacity="0.28"/>
<path fill-rule="evenodd" clip-rule="evenodd" d="M174 381C177.314 381 180 378.314 180 375C180 371.686 177.314 369 174 369C170.686 369 168 371.686 168 375C168 378.314 170.686 381 174 381Z" fill="black" fill-opacity="0.28"/>
<path fill-rule="evenodd" clip-rule="evenodd" d="M118 381C121.314 381 124 378.314 124 375C124 371.686 121.314 369 118 369C114.686 369 112 371.686 112 375C112 378.314 114.686 381 118 381Z" fill="black" fill-opacity="0.28"/>
<path fill-rule="evenodd" clip-rule="evenodd" d="M62 381C65.3137 381 68 378.314 68 375C68 371.686 65.3137 369 62 369C58.6863 369 56 371.686 56 375C56 378.314 58.6863 381 62 381Z" fill="black" fill-opacity="0.28"/>
<path fill-rule="evenodd" clip-rule="evenodd" d="M6 381C9.31371 381 12 378.314 12 375C12 371.686 9.31371 369 6 369C2.68629 369 0 371.686 0 375C0 378.314 2.68629 381 6 381Z" fill="black" fill-opacity="0.28"/>
<path fill-rule="evenodd" clip-rule="evenodd" d="M482 437C485.314 437 488 434.314 488 431C488 427.686 485.314 425 482 425C478.686 425 476 427.686 476 431C476 434.314 478.686 437 482 437Z" fill="black" fill-opacity="0.28"/>
<path fill-rule="evenodd" clip-rule="evenodd" d="M426 437C429.314 437 432 434.314 432 431C432 427.686 429.314 425 426 425C422.686 425 420 427.686 420 431C420 434.314 422.686 437 426 437Z" fill="black" fill-opacity="0.28"/>
<path fill-rule="evenodd" clip-rule="evenodd" d="M370 437C373.314 437 376 434.314 376 431C376 427.686 373.314 425 370 425C366.686 425 364 427.686 364 431C364 434.314 366.686 437 370 437Z" fill="black" fill-opacity="0.28"/>
<path fill-rule="evenodd" clip-rule="evenodd" d="M314 437C317.314 437 320 434.314 320 431C320 427.686 317.314 425 314 425C310.686 425 308 427.686 308 431C308 434.314 310.686 437 314 437Z" fill="black" fill-opacity="0.28"/>
<path fill-rule="evenodd" clip-rule="evenodd" d="M258 437C261.314 437 264 434.314 264 431C264 427.686 261.314 425 258 425C254.686 425 252 427.686 252 431C252 434.314 254.686 437 258 437Z" fill="black" fill-opacity="0.28"/>
<path fill-rule="evenodd" clip-rule="evenodd" d="M202 437C205.314 437 208 434.314 208 431C208 427.686 205.314 425 202 425C198.686 425 196 427.686 196 431C196 434.314 198.686 437 202 437Z" fill="black" fill-opacity="0.28"/>
<path fill-rule="evenodd" clip-rule="evenodd" d="M146 437C149.314 437 152 434.314 152 431C152 427.686 149.314 425 146 425C142.686 425 140 427.686 140 431C140 434.314 142.686 437 146 437Z" fill="black" fill-opacity="0.28"/>
<path fill-rule="evenodd" clip-rule="evenodd" d="M90 437C93.3137 437 96 434.314 96 431C96 427.686 93.3137 425 90 425C86.6863 425 84 427.686 84 431C84 434.314 86.6863 437 90 437Z" fill="black" fill-opacity="0.28"/>
<path fill-rule="evenodd" clip-rule="evenodd" d="M34 437C37.3137 437 40 434.314 40 431C40 427.686 37.3137 425 34 425C30.6863 425 28 427.686 28 431C28 434.314 30.6863 437 34 437Z" fill="black" fill-opacity="0.28"/>
<path fill-rule="evenodd" clip-rule="evenodd" d="M454 437C457.314 437 460 434.314 460 431C460 427.686 457.314 425 454 425C450.686 425 448 427.686 448 431C448 434.314 450.686 437 454 437Z" fill="black" fill-opacity="0.28"/>
<path fill-rule="evenodd" clip-rule="evenodd" d="M398 437C401.314 437 404 434.314 404 431C404 427.686 401.314 425 398 425C394.686 425 392 427.686 392 431C392 434.314 394.686 437 398 437Z" fill="black" fill-opacity="0.28"/>
<path fill-rule="evenodd" clip-rule="evenodd" d="M342 437C345.314 437 348 434.314 348 431C348 427.686 345.314 425 342 425C338.686 425 336 427.686 336 431C336 434.314 338.686 437 342 437Z" fill="black" fill-opacity="0.28"/>
<path fill-rule="evenodd" clip-rule="evenodd" d="M286 437C289.314 437 292 434.314 292 431C292 427.686 289.314 425 286 425C282.686 425 280 427.686 280 431C280 434.314 282.686 437 286 437Z" fill="black" fill-opacity="0.28"/>
<path fill-rule="evenodd" clip-rule="evenodd" d="M230 437C233.314 437 236 434.314 236 431C236 427.686 233.314 425 230 425C226.686 425 224 427.686 224 431C224 434.314 226.686 437 230 437Z" fill="black" fill-opacity="0.28"/>
<path fill-rule="evenodd" clip-rule="evenodd" d="M174 437C177.314 437 180 434.314 180 431C180 427.686 177.314 425 174 425C170.686 425 168 427.686 168 431C168 434.314 170.686 437 174 437Z" fill="black" fill-opacity="0.28"/>
<path fill-rule="evenodd" clip-rule="evenodd" d="M118 437C121.314 437 124 434.314 124 431C124 427.686 121.314 425 118 425C114.686 425 112 427.686 112 431C112 434.314 114.686 437 118 437Z" fill="black" fill-opacity="0.28"/>
<path fill-rule="evenodd" clip-rule="evenodd" d="M62 437C65.3137 437 68 434.314 68 431C68 427.686 65.3137 425 62 425C58.6863 425 56 427.686 56 431C56 434.314 58.6863 437 62 437Z" fill="black" fill-opacity="0.28"/>
<path fill-rule="evenodd" clip-rule="evenodd" d="M6 437C9.31371 437 12 434.314 12 431C12 427.686 9.31371 425 6 425C2.68629 425 0 427.686 0 431C0 434.314 2.68629 437 6 437Z" fill="black" fill-opacity="0.28"/>
<path fill-rule="evenodd" clip-rule="evenodd" d="M482 241C485.314 241 488 238.314 488 235C488 231.686 485.314 229 482 229C478.686 229 476 231.686 476 235C476 238.314 478.686 241 482 241Z" fill="black" fill-opacity="0.28"/>
<path fill-rule="evenodd" clip-rule="evenodd" d="M426 241C429.314 241 432 238.314 432 235C432 231.686 429.314 229 426 229C422.686 229 420 231.686 420 235C420 238.314 422.686 241 426 241Z" fill="black" fill-opacity="0.28"/>
<path fill-rule="evenodd" clip-rule="evenodd" d="M370 241C373.314 241 376 238.314 376 235C376 231.686 373.314 229 370 229C366.686 229 364 231.686 364 235C364 238.314 366.686 241 370 241Z" fill="black" fill-opacity="0.28"/>
<path fill-rule="evenodd" clip-rule="evenodd" d="M314 241C317.314 241 320 238.314 320 235C320 231.686 317.314 229 314 229C310.686 229 308 231.686 308 235C308 238.314 310.686 241 314 241Z" fill="black" fill-opacity="0.28"/>
<path fill-rule="evenodd" clip-rule="evenodd" d="M258 241C261.314 241 264 238.314 264 235C264 231.686 261.314 229 258 229C254.686 229 252 231.686 252 235C252 238.314 254.686 241 258 241Z" fill="black" fill-opacity="0.28"/>
<path fill-rule="evenodd" clip-rule="evenodd" d="M202 241C205.314 241 208 238.314 208 235C208 231.686 205.314 229 202 229C198.686 229 196 231.686 196 235C196 238.314 198.686 241 202 241Z" fill="black" fill-opacity="0.28"/>
<path fill-rule="evenodd" clip-rule="evenodd" d="M146 241C149.314 241 152 238.314 152 235C152 231.686 149.314 229 146 229C142.686 229 140 231.686 140 235C140 238.314 142.686 241 146 241Z" fill="black" fill-opacity="0.28"/>
<path fill-rule="evenodd" clip-rule="evenodd" d="M90 241C93.3137 241 96 238.314 96 235C96 231.686 93.3137 229 90 229C86.6863 229 84 231.686 84 235C84 238.314 86.6863 241 90 241Z" fill="black" fill-opacity="0.28"/>
<path fill-rule="evenodd" clip-rule="evenodd" d="M34 241C37.3137 241 40 238.314 40 235C40 231.686 37.3137 229 34 229C30.6863 229 28 231.686 28 235C28 238.314 30.6863 241 34 241Z" fill="black" fill-opacity="0.28"/>
<path fill-rule="evenodd" clip-rule="evenodd" d="M454 241C457.314 241 460 238.314 460 235C460 231.686 457.314 229 454 229C450.686 229 448 231.686 448 235C448 238.314 450.686 241 454 241Z" fill="black" fill-opacity="0.28"/>
<path fill-rule="evenodd" clip-rule="evenodd" d="M398 241C401.314 241 404 238.314 404 235C404 231.686 401.314 229 398 229C394.686 229 392 231.686 392 235C392 238.314 394.686 241 398 241Z" fill="black" fill-opacity="0.28"/>
<path fill-rule="evenodd" clip-rule="evenodd" d="M342 241C345.314 241 348 238.314 348 235C348 231.686 345.314 229 342 229C338.686 229 336 231.686 336 235C336 238.314 338.686 241 342 241Z" fill="black" fill-opacity="0.28"/>
<path fill-rule="evenodd" clip-rule="evenodd" d="M286 241C289.314 241 292 238.314 292 235C292 231.686 289.314 229 286 229C282.686 229 280 231.686 280 235C280 238.314 282.686 241 286 241Z" fill="black" fill-opacity="0.28"/>
<path fill-rule="evenodd" clip-rule="evenodd" d="M230 241C233.314 241 236 238.314 236 235C236 231.686 233.314 229 230 229C226.686 229 224 231.686 224 235C224 238.314 226.686 241 230 241Z" fill="black" fill-opacity="0.28"/>
<path fill-rule="evenodd" clip-rule="evenodd" d="M174 241C177.314 241 180 238.314 180 235C180 231.686 177.314 229 174 229C170.686 229 168 231.686 168 235C168 238.314 170.686 241 174 241Z" fill="black" fill-opacity="0.28"/>
<path fill-rule="evenodd" clip-rule="evenodd" d="M118 241C121.314 241 124 238.314 124 235C124 231.686 121.314 229 118 229C114.686 229 112 231.686 112 235C112 238.314 114.686 241 118 241Z" fill="black" fill-opacity="0.28"/>
<path fill-rule="evenodd" clip-rule="evenodd" d="M62 241C65.3137 241 68 238.314 68 235C68 231.686 65.3137 229 62 229C58.6863 229 56 231.686 56 235C56 238.314 58.6863 241 62 241Z" fill="black" fill-opacity="0.28"/>
<path fill-rule="evenodd" clip-rule="evenodd" d="M6 241C9.31371 241 12 238.314 12 235C12 231.686 9.31371 229 6 229C2.68629 229 0 231.686 0 235C0 238.314 2.68629 241 6 241Z" fill="black" fill-opacity="0.28"/>
<path fill-rule="evenodd" clip-rule="evenodd" d="M482 297C485.314 297 488 294.314 488 291C488 287.686 485.314 285 482 285C478.686 285 476 287.686 476 291C476 294.314 478.686 297 482 297Z" fill="black" fill-opacity="0.28"/>
<path fill-rule="evenodd" clip-rule="evenodd" d="M426 297C429.314 297 432 294.314 432 291C432 287.686 429.314 285 426 285C422.686 285 420 287.686 420 291C420 294.314 422.686 297 426 297Z" fill="black" fill-opacity="0.28"/>
<path fill-rule="evenodd" clip-rule="evenodd" d="M370 297C373.314 297 376 294.314 376 291C376 287.686 373.314 285 370 285C366.686 285 364 287.686 364 291C364 294.314 366.686 297 370 297Z" fill="black" fill-opacity="0.28"/>
<path fill-rule="evenodd" clip-rule="evenodd" d="M314 297C317.314 297 320 294.314 320 291C320 287.686 317.314 285 314 285C310.686 285 308 287.686 308 291C308 294.314 310.686 297 314 297Z" fill="black" fill-opacity="0.28"/>
<path fill-rule="evenodd" clip-rule="evenodd" d="M258 297C261.314 297 264 294.314 264 291C264 287.686 261.314 285 258 285C254.686 285 252 287.686 252 291C252 294.314 254.686 297 258 297Z" fill="black" fill-opacity="0.28"/>
<path fill-rule="evenodd" clip-rule="evenodd" d="M202 297C205.314 297 208 294.314 208 291C208 287.686 205.314 285 202 285C198.686 285 196 287.686 196 291C196 294.314 198.686 297 202 297Z" fill="black" fill-opacity="0.28"/>
<path fill-rule="evenodd" clip-rule="evenodd" d="M146 297C149.314 297 152 294.314 152 291C152 287.686 149.314 285 146 285C142.686 285 140 287.686 140 291C140 294.314 142.686 297 146 297Z" fill="black" fill-opacity="0.28"/>
<path fill-rule="evenodd" clip-rule="evenodd" d="M90 297C93.3137 297 96 294.314 96 291C96 287.686 93.3137 285 90 285C86.6863 285 84 287.686 84 291C84 294.314 86.6863 297 90 297Z" fill="black" fill-opacity="0.28"/>
<path fill-rule="evenodd" clip-rule="evenodd" d="M34 297C37.3137 297 40 294.314 40 291C40 287.686 37.3137 285 34 285C30.6863 285 28 287.686 28 291C28 294.314 30.6863 297 34 297Z" fill="black" fill-opacity="0.28"/>
<path fill-rule="evenodd" clip-rule="evenodd" d="M454 297C457.314 297 460 294.314 460 291C460 287.686 457.314 285 454 285C450.686 285 448 287.686 448 291C448 294.314 450.686 297 454 297Z" fill="black" fill-opacity="0.28"/>
<path fill-rule="evenodd" clip-rule="evenodd" d="M398 297C401.314 297 404 294.314 404 291C404 287.686 401.314 285 398 285C394.686 285 392 287.686 392 291C392 294.314 394.686 297 398 297Z" fill="black" fill-opacity="0.28"/>
<path fill-rule="evenodd" clip-rule="evenodd" d="M342 297C345.314 297 348 294.314 348 291C348 287.686 345.314 285 342 285C338.686 285 336 287.686 336 291C336 294.314 338.686 297 342 297Z" fill="black" fill-opacity="0.28"/>
<path fill-rule="evenodd" clip-rule="evenodd" d="M286 297C289.314 297 292 294.314 292 291C292 287.686 289.314 285 286 285C282.686 285 280 287.686 280 291C280 294.314 282.686 297 286 297Z" fill="black" fill-opacity="0.28"/>
<path fill-rule="evenodd" clip-rule="evenodd" d="M230 297C233.314 297 236 294.314 236 291C236 287.686 233.314 285 230 285C226.686 285 224 287.686 224 291C224 294.314 226.686 297 230 297Z" fill="black" fill-opacity="0.28"/>
<path fill-rule="evenodd" clip-rule="evenodd" d="M174 297C177.314 297 180 294.314 180 291C180 287.686 177.314 285 174 285C170.686 285 168 287.686 168 291C168 294.314 170.686 297 174 297Z" fill="black" fill-opacity="0.28"/>
<path fill-rule="evenodd" clip-rule="evenodd" d="M118 297C121.314 297 124 294.314 124 291C124 287.686 121.314 285 118 285C114.686 285 112 287.686 112 291C112 294.314 114.686 297 118 297Z" fill="black" fill-opacity="0.28"/>
<path fill-rule="evenodd" clip-rule="evenodd" d="M62 297C65.3137 297 68 294.314 68 291C68 287.686 65.3137 285 62 285C58.6863 285 56 287.686 56 291C56 294.314 58.6863 297 62 297Z" fill="black" fill-opacity="0.28"/>
<path fill-rule="evenodd" clip-rule="evenodd" d="M6 297C9.31371 297 12 294.314 12 291C12 287.686 9.31371 285 6 285C2.68629 285 0 287.686 0 291C0 294.314 2.68629 297 6 297Z" fill="black" fill-opacity="0.28"/>
<path fill-rule="evenodd" clip-rule="evenodd" d="M482 353C485.314 353 488 350.314 488 347C488 343.686 485.314 341 482 341C478.686 341 476 343.686 476 347C476 350.314 478.686 353 482 353Z" fill="black" fill-opacity="0.28"/>
<path fill-rule="evenodd" clip-rule="evenodd" d="M426 353C429.314 353 432 350.314 432 347C432 343.686 429.314 341 426 341C422.686 341 420 343.686 420 347C420 350.314 422.686 353 426 353Z" fill="black" fill-opacity="0.28"/>
<path fill-rule="evenodd" clip-rule="evenodd" d="M370 353C373.314 353 376 350.314 376 347C376 343.686 373.314 341 370 341C366.686 341 364 343.686 364 347C364 350.314 366.686 353 370 353Z" fill="black" fill-opacity="0.28"/>
<path fill-rule="evenodd" clip-rule="evenodd" d="M314 353C317.314 353 320 350.314 320 347C320 343.686 317.314 341 314 341C310.686 341 308 343.686 308 347C308 350.314 310.686 353 314 353Z" fill="black" fill-opacity="0.28"/>
<path fill-rule="evenodd" clip-rule="evenodd" d="M258 353C261.314 353 264 350.314 264 347C264 343.686 261.314 341 258 341C254.686 341 252 343.686 252 347C252 350.314 254.686 353 258 353Z" fill="black" fill-opacity="0.28"/>
<path fill-rule="evenodd" clip-rule="evenodd" d="M202 353C205.314 353 208 350.314 208 347C208 343.686 205.314 341 202 341C198.686 341 196 343.686 196 347C196 350.314 198.686 353 202 353Z" fill="black" fill-opacity="0.28"/>
<path fill-rule="evenodd" clip-rule="evenodd" d="M146 353C149.314 353 152 350.314 152 347C152 343.686 149.314 341 146 341C142.686 341 140 343.686 140 347C140 350.314 142.686 353 146 353Z" fill="black" fill-opacity="0.28"/>
<path fill-rule="evenodd" clip-rule="evenodd" d="M90 353C93.3137 353 96 350.314 96 347C96 343.686 93.3137 341 90 341C86.6863 341 84 343.686 84 347C84 350.314 86.6863 353 90 353Z" fill="black" fill-opacity="0.28"/>
<path fill-rule="evenodd" clip-rule="evenodd" d="M34 353C37.3137 353 40 350.314 40 347C40 343.686 37.3137 341 34 341C30.6863 341 28 343.686 28 347C28 350.314 30.6863 353 34 353Z" fill="black" fill-opacity="0.28"/>
<path fill-rule="evenodd" clip-rule="evenodd" d="M454 353C457.314 353 460 350.314 460 347C460 343.686 457.314 341 454 341C450.686 341 448 343.686 448 347C448 350.314 450.686 353 454 353Z" fill="black" fill-opacity="0.28"/>
<path fill-rule="evenodd" clip-rule="evenodd" d="M398 353C401.314 353 404 350.314 404 347C404 343.686 401.314 341 398 341C394.686 341 392 343.686 392 347C392 350.314 394.686 353 398 353Z" fill="black" fill-opacity="0.28"/>
<path fill-rule="evenodd" clip-rule="evenodd" d="M342 353C345.314 353 348 350.314 348 347C348 343.686 345.314 341 342 341C338.686 341 336 343.686 336 347C336 350.314 338.686 353 342 353Z" fill="black" fill-opacity="0.28"/>
<path fill-rule="evenodd" clip-rule="evenodd" d="M286 353C289.314 353 292 350.314 292 347C292 343.686 289.314 341 286 341C282.686 341 280 343.686 280 347C280 350.314 282.686 353 286 353Z" fill="black" fill-opacity="0.28"/>
<path fill-rule="evenodd" clip-rule="evenodd" d="M230 353C233.314 353 236 350.314 236 347C236 343.686 233.314 341 230 341C226.686 341 224 343.686 224 347C224 350.314 226.686 353 230 353Z" fill="black" fill-opacity="0.28"/>
<path fill-rule="evenodd" clip-rule="evenodd" d="M174 353C177.314 353 180 350.314 180 347C180 343.686 177.314 341 174 341C170.686 341 168 343.686 168 347C168 350.314 170.686 353 174 353Z" fill="black" fill-opacity="0.28"/>
<path fill-rule="evenodd" clip-rule="evenodd" d="M118 353C121.314 353 124 350.314 124 347C124 343.686 121.314 341 118 341C114.686 341 112 343.686 112 347C112 350.314 114.686 353 118 353Z" fill="black" fill-opacity="0.28"/>
<path fill-rule="evenodd" clip-rule="evenodd" d="M62 353C65.3137 353 68 350.314 68 347C68 343.686 65.3137 341 62 341C58.6863 341 56 343.686 56 347C56 350.314 58.6863 353 62 353Z" fill="black" fill-opacity="0.28"/>
<path fill-rule="evenodd" clip-rule="evenodd" d="M6 353C9.31371 353 12 350.314 12 347C12 343.686 9.31371 341 6 341C2.68629 341 0 343.686 0 347C0 350.314 2.68629 353 6 353Z" fill="black" fill-opacity="0.28"/>
<path fill-rule="evenodd" clip-rule="evenodd" d="M482 409C485.314 409 488 406.314 488 403C488 399.686 485.314 397 482 397C478.686 397 476 399.686 476 403C476 406.314 478.686 409 482 409Z" fill="black" fill-opacity="0.28"/>
<path fill-rule="evenodd" clip-rule="evenodd" d="M426 409C429.314 409 432 406.314 432 403C432 399.686 429.314 397 426 397C422.686 397 420 399.686 420 403C420 406.314 422.686 409 426 409Z" fill="black" fill-opacity="0.28"/>
<path fill-rule="evenodd" clip-rule="evenodd" d="M370 409C373.314 409 376 406.314 376 403C376 399.686 373.314 397 370 397C366.686 397 364 399.686 364 403C364 406.314 366.686 409 370 409Z" fill="black" fill-opacity="0.28"/>
<path fill-rule="evenodd" clip-rule="evenodd" d="M314 409C317.314 409 320 406.314 320 403C320 399.686 317.314 397 314 397C310.686 397 308 399.686 308 403C308 406.314 310.686 409 314 409Z" fill="black" fill-opacity="0.28"/>
<path fill-rule="evenodd" clip-rule="evenodd" d="M258 409C261.314 409 264 406.314 264 403C264 399.686 261.314 397 258 397C254.686 397 252 399.686 252 403C252 406.314 254.686 409 258 409Z" fill="black" fill-opacity="0.28"/>
<path fill-rule="evenodd" clip-rule="evenodd" d="M202 409C205.314 409 208 406.314 208 403C208 399.686 205.314 397 202 397C198.686 397 196 399.686 196 403C196 406.314 198.686 409 202 409Z" fill="black" fill-opacity="0.28"/>
<path fill-rule="evenodd" clip-rule="evenodd" d="M146 409C149.314 409 152 406.314 152 403C152 399.686 149.314 397 146 397C142.686 397 140 399.686 140 403C140 406.314 142.686 409 146 409Z" fill="black" fill-opacity="0.28"/>
<path fill-rule="evenodd" clip-rule="evenodd" d="M90 409C93.3137 409 96 406.314 96 403C96 399.686 93.3137 397 90 397C86.6863 397 84 399.686 84 403C84 406.314 86.6863 409 90 409Z" fill="black" fill-opacity="0.28"/>
<path fill-rule="evenodd" clip-rule="evenodd" d="M34 409C37.3137 409 40 406.314 40 403C40 399.686 37.3137 397 34 397C30.6863 397 28 399.686 28 403C28 406.314 30.6863 409 34 409Z" fill="black" fill-opacity="0.28"/>
<path fill-rule="evenodd" clip-rule="evenodd" d="M454 409C457.314 409 460 406.314 460 403C460 399.686 457.314 397 454 397C450.686 397 448 399.686 448 403C448 406.314 450.686 409 454 409Z" fill="black" fill-opacity="0.28"/>
<path fill-rule="evenodd" clip-rule="evenodd" d="M398 409C401.314 409 404 406.314 404 403C404 399.686 401.314 397 398 397C394.686 397 392 399.686 392 403C392 406.314 394.686 409 398 409Z" fill="black" fill-opacity="0.28"/>
<path fill-rule="evenodd" clip-rule="evenodd" d="M342 409C345.314 409 348 406.314 348 403C348 399.686 345.314 397 342 397C338.686 397 336 399.686 336 403C336 406.314 338.686 409 342 409Z" fill="black" fill-opacity="0.28"/>
<path fill-rule="evenodd" clip-rule="evenodd" d="M286 409C289.314 409 292 406.314 292 403C292 399.686 289.314 397 286 397C282.686 397 280 399.686 280 403C280 406.314 282.686 409 286 409Z" fill="black" fill-opacity="0.28"/>
<path fill-rule="evenodd" clip-rule="evenodd" d="M230 409C233.314 409 236 406.314 236 403C236 399.686 233.314 397 230 397C226.686 397 224 399.686 224 403C224 406.314 226.686 409 230 409Z" fill="black" fill-opacity="0.28"/>
<path fill-rule="evenodd" clip-rule="evenodd" d="M174 409C177.314 409 180 406.314 180 403C180 399.686 177.314 397 174 397C170.686 397 168 399.686 168 403C168 406.314 170.686 409 174 409Z" fill="black" fill-opacity="0.28"/>
<path fill-rule="evenodd" clip-rule="evenodd" d="M118 409C121.314 409 124 406.314 124 403C124 399.686 121.314 397 118 397C114.686 397 112 399.686 112 403C112 406.314 114.686 409 118 409Z" fill="black" fill-opacity="0.28"/>
<path fill-rule="evenodd" clip-rule="evenodd" d="M62 409C65.3137 409 68 406.314 68 403C68 399.686 65.3137 397 62 397C58.6863 397 56 399.686 56 403C56 406.314 58.6863 409 62 409Z" fill="black" fill-opacity="0.28"/>
<path fill-rule="evenodd" clip-rule="evenodd" d="M6 409C9.31371 409 12 406.314 12 403C12 399.686 9.31371 397 6 397C2.68629 397 0 399.686 0 403C0 406.314 2.68629 409 6 409Z" fill="black" fill-opacity="0.28"/>
</g>
</svg>
