<svg width="498" height="391" viewBox="0 0 498 391" fill="none" xmlns="http://www.w3.org/2000/svg">
<path fill-rule="evenodd" clip-rule="evenodd" d="M295.516 155.887L100.043 201.493L132.584 279.739C141.145 269.8 152.385 261.514 165.606 256.015C205.331 239.494 250.294 253.398 265.307 289.497C280.32 325.597 258.477 367.284 218.752 383.806C179.027 400.327 134.064 386.423 119.051 350.323L0 64.0643L273.663 0.21582L359.56 206.756C368.121 196.817 379.361 188.531 392.582 183.032C432.307 166.511 477.27 180.415 492.283 216.514C507.296 252.614 485.454 294.301 445.728 310.823C406.003 327.344 361.041 313.44 346.027 277.34L295.516 155.887ZM382.591 262.134C388.544 276.446 409.688 282.985 430.544 274.311C451.4 265.637 461.671 246.033 455.719 231.721C449.767 217.409 428.623 210.87 407.767 219.544C386.911 228.217 376.639 247.822 382.591 262.134ZM203.568 347.294C182.712 355.968 161.568 349.429 155.615 335.117C149.663 320.805 159.935 301.2 180.791 292.527C201.647 283.853 222.791 290.392 228.743 304.704C234.695 319.016 224.423 338.62 203.568 347.294ZM280.122 118.872L249.963 46.3522L54.4889 91.9582L84.6487 164.478L280.122 118.872Z" fill="black" fill-opacity="0.07"/>
</svg>
